<svg xmlns="http://www.w3.org/2000/svg" xmlns:xlink="http://www.w3.org/1999/xlink" width="500" zoomAndPan="magnify" viewBox="0 0 375 374.999991" height="500" preserveAspectRatio="xMidYMid meet" version="1.0"><defs><g/><clipPath id="25e06620b4"><path d="M 50.167969 149 L 119 149 L 119 251 L 50.167969 251 Z M 50.167969 149 " clip-rule="nonzero"/></clipPath><clipPath id="2a8f116bf1"><path d="M 81 123.886719 L 119 123.886719 L 119 207 L 81 207 Z M 81 123.886719 " clip-rule="nonzero"/></clipPath><clipPath id="2a73203e90"><path d="M 54 166.40625 L 107.992188 166.40625 L 107.992188 211.765625 L 54 211.765625 Z M 54 166.40625 " clip-rule="nonzero"/></clipPath><clipPath id="819ea960a4"><path d="M 107.917969 211.75 C 107.683594 211.414062 107.464844 211.082031 107.230469 210.753906 C 106.40625 209.683594 105.46875 208.710938 104.402344 207.796875 C 104.175781 207.601562 103.949219 207.410156 103.714844 207.222656 C 102.367188 206.132812 100.792969 205.136719 99.117188 204.152344 C 98.101562 203.566406 97.046875 202.996094 95.949219 202.429688 C 93.386719 201.09375 90.625 199.78125 87.769531 198.335938 C 86.75 197.8125 85.714844 197.289062 84.675781 196.730469 C 85.714844 197.289062 86.75 197.8125 87.769531 198.335938 C 90.625 199.78125 93.386719 201.09375 95.949219 202.429688 C 97.046875 202.996094 98.101562 203.566406 99.117188 204.152344 C 100.792969 205.136719 102.367188 206.132812 103.714844 207.222656 C 103.949219 207.410156 104.175781 207.601562 104.402344 207.796875 C 105.46875 208.710938 106.40625 209.683594 107.230469 210.753906 C 107.464844 211.082031 107.683594 211.414062 107.917969 211.75 M 70.746094 186.324219 C 70.742188 186.324219 70.742188 186.320312 70.738281 186.320312 C 70.511719 186.042969 70.273438 185.777344 70.050781 185.492188 L 69.078125 184.195312 C 69.070312 184.183594 69.066406 184.175781 69.058594 184.167969 L 68.765625 183.714844 L 68.164062 182.785156 C 67.96875 182.472656 67.792969 182.132812 67.613281 181.8125 C 67.4375 181.480469 67.25 181.164062 67.097656 180.820312 L 66.636719 179.792969 C 66.5625 179.621094 66.480469 179.449219 66.410156 179.277344 L 66.21875 178.75 C 66.089844 178.394531 65.96875 178.042969 65.851562 177.6875 C 65.96875 178.042969 66.089844 178.394531 66.21875 178.75 L 66.410156 179.277344 C 66.480469 179.449219 66.5625 179.621094 66.636719 179.792969 L 67.097656 180.820312 C 67.25 181.164062 67.4375 181.480469 67.613281 181.8125 C 67.792969 182.132812 67.96875 182.472656 68.164062 182.785156 L 68.765625 183.714844 L 69.058594 184.167969 C 69.066406 184.175781 69.070312 184.183594 69.078125 184.195312 L 70.050781 185.492188 C 70.273438 185.777344 70.511719 186.042969 70.738281 186.320312 C 70.742188 186.320312 70.742188 186.324219 70.746094 186.324219 M 54.078125 174.875 C 54.097656 174.839844 54.121094 174.800781 54.140625 174.761719 C 54.753906 173.699219 55.363281 172.652344 56.0625 171.667969 C 57.074219 170.175781 58.183594 168.773438 59.386719 167.449219 C 59.378906 167.460938 59.375 167.476562 59.367188 167.488281 C 59.367188 167.492188 59.363281 167.496094 59.359375 167.5 C 58.15625 168.820312 57.046875 170.226562 56.035156 171.71875 C 55.335938 172.703125 54.726562 173.75 54.113281 174.808594 C 54.101562 174.832031 54.089844 174.855469 54.078125 174.875 M 64.917969 169.109375 L 65.011719 168.082031 C 65.078125 167.523438 65.164062 166.976562 65.265625 166.4375 C 65.164062 166.976562 65.078125 167.523438 65.011719 168.082031 L 64.917969 169.109375 " clip-rule="nonzero"/></clipPath><clipPath id="3f96eb29d2"><path d="M 107.917969 211.75 C 107.683594 211.414062 107.464844 211.082031 107.230469 210.753906 C 106.40625 209.683594 105.46875 208.710938 104.402344 207.796875 C 104.175781 207.601562 103.949219 207.410156 103.714844 207.222656 C 102.367188 206.132812 100.792969 205.136719 99.117188 204.152344 C 98.101562 203.566406 97.046875 202.996094 95.949219 202.429688 C 93.386719 201.09375 90.625 199.78125 87.769531 198.335938 C 86.75 197.8125 85.714844 197.289062 84.675781 196.730469 C 85.714844 197.289062 86.75 197.8125 87.769531 198.335938 C 90.625 199.78125 93.386719 201.09375 95.949219 202.429688 C 97.046875 202.996094 98.101562 203.566406 99.117188 204.152344 C 100.792969 205.136719 102.367188 206.132812 103.714844 207.222656 C 103.949219 207.410156 104.175781 207.601562 104.402344 207.796875 C 105.46875 208.710938 106.40625 209.683594 107.230469 210.753906 C 107.464844 211.082031 107.683594 211.414062 107.917969 211.75 M 70.746094 186.324219 C 70.742188 186.324219 70.742188 186.320312 70.738281 186.320312 C 70.511719 186.042969 70.273438 185.777344 70.050781 185.492188 L 69.078125 184.195312 C 69.070312 184.183594 69.066406 184.175781 69.058594 184.167969 L 68.765625 183.714844 L 68.164062 182.785156 C 67.96875 182.472656 67.792969 182.132812 67.613281 181.8125 C 67.4375 181.480469 67.25 181.164062 67.097656 180.820312 L 66.636719 179.792969 C 66.5625 179.621094 66.480469 179.449219 66.410156 179.277344 L 66.21875 178.75 C 66.089844 178.394531 65.96875 178.042969 65.851562 177.6875 C 65.96875 178.042969 66.089844 178.394531 66.21875 178.75 L 66.410156 179.277344 C 66.480469 179.449219 66.5625 179.621094 66.636719 179.792969 L 67.097656 180.820312 C 67.25 181.164062 67.4375 181.480469 67.613281 181.8125 C 67.792969 182.132812 67.96875 182.472656 68.164062 182.785156 L 68.765625 183.714844 L 69.058594 184.167969 C 69.066406 184.175781 69.070312 184.183594 69.078125 184.195312 L 70.050781 185.492188 C 70.273438 185.777344 70.511719 186.042969 70.738281 186.320312 C 70.742188 186.320312 70.742188 186.324219 70.746094 186.324219 M 54.078125 174.875 C 54.097656 174.839844 54.121094 174.800781 54.140625 174.761719 C 54.753906 173.699219 55.363281 172.652344 56.0625 171.667969 C 57.074219 170.175781 58.183594 168.773438 59.386719 167.449219 C 59.378906 167.460938 59.375 167.476562 59.367188 167.488281 C 59.367188 167.492188 59.363281 167.496094 59.359375 167.5 C 58.15625 168.820312 57.046875 170.226562 56.035156 171.71875 C 55.335938 172.703125 54.726562 173.75 54.113281 174.808594 C 54.101562 174.832031 54.089844 174.855469 54.078125 174.875 M 64.917969 169.109375 L 65.011719 168.082031 C 65.078125 167.523438 65.164062 166.976562 65.265625 166.4375 C 65.164062 166.976562 65.078125 167.523438 65.011719 168.082031 L 64.917969 169.109375 " clip-rule="nonzero"/></clipPath><clipPath id="23441d7f09"><path d="M 50.195312 149.820312 L 114.527344 149.820312 L 114.527344 250.214844 L 50.195312 250.214844 Z M 50.195312 149.820312 " clip-rule="nonzero"/></clipPath><clipPath id="4d39b86610"><path d="M 96.191406 250.1875 C 96.207031 249.894531 96.234375 249.605469 96.253906 249.316406 C 96.277344 249.023438 96.285156 248.726562 96.296875 248.4375 L 96.394531 246.714844 L 96.441406 245.011719 C 96.492188 242.765625 96.488281 240.582031 96.257812 238.523438 C 96.042969 236.460938 95.652344 234.53125 95.054688 232.820312 C 94.929688 232.382812 94.730469 231.984375 94.570312 231.578125 L 94.535156 231.488281 L 94.449219 231.273438 C 94.402344 231.175781 94.347656 231.082031 94.300781 230.988281 L 94.011719 230.414062 C 93.929688 230.222656 93.8125 230.046875 93.703125 229.863281 L 93.398438 229.347656 C 93.390625 229.335938 93.386719 229.324219 93.375 229.3125 C 93.140625 228.976562 92.921875 228.644531 92.6875 228.316406 C 91.863281 227.246094 90.925781 226.273438 89.859375 225.359375 C 89.632812 225.164062 89.410156 224.972656 89.171875 224.785156 C 87.828125 223.695312 86.253906 222.699219 84.574219 221.71875 C 83.5625 221.128906 82.503906 220.558594 81.40625 219.992188 C 78.84375 218.65625 76.085938 217.34375 73.226562 215.898438 C 72.207031 215.375 71.175781 214.847656 70.132812 214.292969 C 69.609375 214.003906 69.09375 213.730469 68.566406 213.429688 C 68.039062 213.132812 67.515625 212.84375 66.984375 212.519531 C 66.9375 212.492188 66.890625 212.464844 66.839844 212.433594 C 64.78125 211.203125 62.699219 209.835938 60.671875 208.195312 C 60.152344 207.765625 59.636719 207.335938 59.128906 206.882812 L 58.378906 206.175781 L 58 205.824219 L 57.632812 205.445312 L 56.902344 204.6875 C 56.65625 204.4375 56.433594 204.148438 56.199219 203.882812 C 55.96875 203.605469 55.730469 203.339844 55.511719 203.054688 L 54.851562 202.183594 L 54.535156 201.757812 C 54.53125 201.75 54.523438 201.738281 54.515625 201.730469 L 54.222656 201.28125 L 53.625 200.347656 C 53.425781 200.035156 53.253906 199.699219 53.070312 199.375 C 52.894531 199.042969 52.707031 198.726562 52.554688 198.382812 L 52.09375 197.355469 C 52.019531 197.183594 51.9375 197.015625 51.871094 196.839844 L 51.675781 196.3125 C 51.546875 195.957031 51.425781 195.605469 51.308594 195.25 C 51.195312 194.894531 51.105469 194.53125 51.007812 194.171875 C 50.921875 193.808594 50.8125 193.453125 50.746094 193.089844 C 50.679688 192.730469 50.621094 192.363281 50.5625 192.003906 L 50.472656 191.460938 C 50.449219 191.277344 50.4375 191.097656 50.421875 190.921875 L 50.332031 189.839844 C 50.296875 189.480469 50.300781 189.125 50.300781 188.769531 L 50.304688 187.714844 C 50.300781 187.359375 50.347656 187.019531 50.375 186.671875 L 50.46875 185.644531 C 50.800781 182.929688 51.554688 180.425781 52.523438 178.109375 C 52.773438 177.53125 53.003906 176.953125 53.296875 176.40625 C 53.558594 175.894531 53.804688 175.375 54.078125 174.875 C 54.089844 174.855469 54.101562 174.832031 54.113281 174.808594 C 54.726562 173.75 55.335938 172.703125 56.035156 171.71875 C 57.046875 170.226562 58.15625 168.820312 59.359375 167.5 C 59.363281 167.496094 59.367188 167.492188 59.367188 167.488281 C 34.625 220.078125 118.300781 201.613281 96.191406 250.1875 M 110.734375 232.625 C 110.75 232.328125 110.777344 232.042969 110.796875 231.75 C 110.820312 231.460938 110.828125 231.164062 110.835938 230.875 L 110.9375 229.152344 L 110.984375 227.449219 C 111.035156 225.203125 111.03125 223.019531 110.800781 220.957031 C 110.585938 218.898438 110.195312 216.96875 109.597656 215.257812 C 109.472656 214.820312 109.269531 214.421875 109.113281 214.015625 L 109.078125 213.925781 L 108.992188 213.710938 C 108.945312 213.613281 108.890625 213.519531 108.84375 213.421875 L 108.554688 212.851562 C 108.46875 212.65625 108.355469 212.484375 108.246094 212.304688 L 107.941406 211.785156 C 107.933594 211.773438 107.925781 211.761719 107.917969 211.75 C 107.683594 211.414062 107.464844 211.082031 107.230469 210.753906 C 106.40625 209.683594 105.46875 208.710938 104.402344 207.796875 C 104.175781 207.601562 103.949219 207.410156 103.714844 207.222656 C 102.367188 206.132812 100.792969 205.136719 99.117188 204.152344 C 98.101562 203.566406 97.046875 202.996094 95.949219 202.429688 C 93.386719 201.09375 90.625 199.78125 87.769531 198.335938 C 86.75 197.8125 85.714844 197.289062 84.675781 196.730469 C 84.152344 196.441406 83.636719 196.164062 83.109375 195.867188 C 82.582031 195.570312 82.054688 195.28125 81.527344 194.957031 C 81.476562 194.929688 81.433594 194.902344 81.382812 194.871094 C 79.324219 193.640625 77.242188 192.273438 75.214844 190.632812 C 74.746094 190.242188 74.277344 189.851562 73.8125 189.445312 C 73.765625 189.40625 73.71875 189.363281 73.671875 189.320312 L 72.917969 188.613281 L 72.542969 188.261719 L 72.175781 187.882812 L 71.445312 187.125 C 71.203125 186.878906 70.980469 186.589844 70.746094 186.324219 C 70.742188 186.324219 70.742188 186.320312 70.738281 186.320312 C 70.511719 186.042969 70.273438 185.777344 70.050781 185.492188 L 69.078125 184.195312 C 69.070312 184.183594 69.066406 184.175781 69.058594 184.167969 L 68.765625 183.714844 L 68.164062 182.785156 C 67.96875 182.472656 67.792969 182.132812 67.613281 181.8125 C 67.4375 181.480469 67.25 181.164062 67.097656 180.820312 L 66.636719 179.792969 C 66.5625 179.621094 66.480469 179.449219 66.410156 179.277344 L 66.21875 178.75 C 66.089844 178.394531 65.96875 178.042969 65.851562 177.6875 C 65.734375 177.332031 65.648438 176.964844 65.550781 176.609375 C 65.464844 176.246094 65.355469 175.890625 65.289062 175.527344 C 65.222656 175.164062 65.164062 174.800781 65.101562 174.441406 L 65.015625 173.898438 C 64.992188 173.726562 64.980469 173.558594 64.964844 173.390625 C 64.964844 173.378906 64.964844 173.367188 64.960938 173.355469 L 64.871094 172.277344 C 64.839844 171.917969 64.839844 171.5625 64.839844 171.210938 L 64.847656 170.148438 C 64.847656 170.132812 64.847656 170.109375 64.847656 170.09375 C 64.847656 169.757812 64.890625 169.4375 64.917969 169.109375 L 65.011719 168.082031 C 65.078125 167.523438 65.164062 166.976562 65.265625 166.4375 C 65.660156 164.347656 66.292969 162.386719 67.066406 160.546875 C 67.316406 159.96875 67.546875 159.390625 67.839844 158.84375 C 68.121094 158.289062 68.382812 157.730469 68.683594 157.195312 C 69.296875 156.136719 69.90625 155.089844 70.605469 154.105469 C 71.617188 152.613281 72.726562 151.210938 73.929688 149.886719 C 49.128906 202.523438 132.851562 184.039062 110.734375 232.625 " clip-rule="nonzero"/></clipPath><clipPath id="96bb2f78e1"><path d="M 96.191406 250.1875 C 96.207031 249.894531 96.234375 249.605469 96.253906 249.316406 C 96.277344 249.023438 96.285156 248.726562 96.296875 248.4375 L 96.394531 246.714844 L 96.441406 245.011719 C 96.492188 242.765625 96.488281 240.582031 96.257812 238.523438 C 96.042969 236.460938 95.652344 234.53125 95.054688 232.820312 C 94.929688 232.382812 94.730469 231.984375 94.570312 231.578125 L 94.535156 231.488281 L 94.449219 231.273438 C 94.402344 231.175781 94.347656 231.082031 94.300781 230.988281 L 94.011719 230.414062 C 93.929688 230.222656 93.8125 230.046875 93.703125 229.863281 L 93.398438 229.347656 C 93.390625 229.335938 93.386719 229.324219 93.375 229.3125 C 93.140625 228.976562 92.921875 228.644531 92.6875 228.316406 C 91.863281 227.246094 90.925781 226.273438 89.859375 225.359375 C 89.632812 225.164062 89.410156 224.972656 89.171875 224.785156 C 87.828125 223.695312 86.253906 222.699219 84.574219 221.71875 C 83.5625 221.128906 82.503906 220.558594 81.40625 219.992188 C 78.84375 218.65625 76.085938 217.34375 73.226562 215.898438 C 72.207031 215.375 71.175781 214.847656 70.132812 214.292969 C 69.609375 214.003906 69.09375 213.730469 68.566406 213.429688 C 68.039062 213.132812 67.515625 212.84375 66.984375 212.519531 C 66.9375 212.492188 66.890625 212.464844 66.839844 212.433594 C 64.78125 211.203125 62.699219 209.835938 60.671875 208.195312 C 60.152344 207.765625 59.636719 207.335938 59.128906 206.882812 L 58.378906 206.175781 L 58 205.824219 L 57.632812 205.445312 L 56.902344 204.6875 C 56.65625 204.4375 56.433594 204.148438 56.199219 203.882812 C 55.96875 203.605469 55.730469 203.339844 55.511719 203.054688 L 54.851562 202.183594 L 54.535156 201.757812 C 54.53125 201.75 54.523438 201.738281 54.515625 201.730469 L 54.222656 201.28125 L 53.625 200.347656 C 53.425781 200.035156 53.253906 199.699219 53.070312 199.375 C 52.894531 199.042969 52.707031 198.726562 52.554688 198.382812 L 52.09375 197.355469 C 52.019531 197.183594 51.9375 197.015625 51.871094 196.839844 L 51.675781 196.3125 C 51.546875 195.957031 51.425781 195.605469 51.308594 195.25 C 51.195312 194.894531 51.105469 194.53125 51.007812 194.171875 C 50.921875 193.808594 50.8125 193.453125 50.746094 193.089844 C 50.679688 192.730469 50.621094 192.363281 50.5625 192.003906 L 50.472656 191.460938 C 50.449219 191.277344 50.4375 191.097656 50.421875 190.921875 L 50.332031 189.839844 C 50.296875 189.480469 50.300781 189.125 50.300781 188.769531 L 50.304688 187.714844 C 50.300781 187.359375 50.347656 187.019531 50.375 186.671875 L 50.46875 185.644531 C 50.800781 182.929688 51.554688 180.425781 52.523438 178.109375 C 52.773438 177.53125 53.003906 176.953125 53.296875 176.40625 C 53.558594 175.894531 53.804688 175.375 54.078125 174.875 C 54.089844 174.855469 54.101562 174.832031 54.113281 174.808594 C 54.726562 173.75 55.335938 172.703125 56.035156 171.71875 C 57.046875 170.226562 58.15625 168.820312 59.359375 167.5 C 59.363281 167.496094 59.367188 167.492188 59.367188 167.488281 C 34.625 220.078125 118.300781 201.613281 96.191406 250.1875 M 110.734375 232.625 C 110.75 232.328125 110.777344 232.042969 110.796875 231.75 C 110.820312 231.460938 110.828125 231.164062 110.835938 230.875 L 110.9375 229.152344 L 110.984375 227.449219 C 111.035156 225.203125 111.03125 223.019531 110.800781 220.957031 C 110.585938 218.898438 110.195312 216.96875 109.597656 215.257812 C 109.472656 214.820312 109.269531 214.421875 109.113281 214.015625 L 109.078125 213.925781 L 108.992188 213.710938 C 108.945312 213.613281 108.890625 213.519531 108.84375 213.421875 L 108.554688 212.851562 C 108.46875 212.65625 108.355469 212.484375 108.246094 212.304688 L 107.941406 211.785156 C 107.933594 211.773438 107.925781 211.761719 107.917969 211.75 C 107.683594 211.414062 107.464844 211.082031 107.230469 210.753906 C 106.40625 209.683594 105.46875 208.710938 104.402344 207.796875 C 104.175781 207.601562 103.949219 207.410156 103.714844 207.222656 C 102.367188 206.132812 100.792969 205.136719 99.117188 204.152344 C 98.101562 203.566406 97.046875 202.996094 95.949219 202.429688 C 93.386719 201.09375 90.625 199.78125 87.769531 198.335938 C 86.75 197.8125 85.714844 197.289062 84.675781 196.730469 C 84.152344 196.441406 83.636719 196.164062 83.109375 195.867188 C 82.582031 195.570312 82.054688 195.28125 81.527344 194.957031 C 81.476562 194.929688 81.433594 194.902344 81.382812 194.871094 C 79.324219 193.640625 77.242188 192.273438 75.214844 190.632812 C 74.746094 190.242188 74.277344 189.851562 73.8125 189.445312 C 73.765625 189.40625 73.71875 189.363281 73.671875 189.320312 L 72.917969 188.613281 L 72.542969 188.261719 L 72.175781 187.882812 L 71.445312 187.125 C 71.203125 186.878906 70.980469 186.589844 70.746094 186.324219 C 70.742188 186.324219 70.742188 186.320312 70.738281 186.320312 C 70.511719 186.042969 70.273438 185.777344 70.050781 185.492188 L 69.078125 184.195312 C 69.070312 184.183594 69.066406 184.175781 69.058594 184.167969 L 68.765625 183.714844 L 68.164062 182.785156 C 67.96875 182.472656 67.792969 182.132812 67.613281 181.8125 C 67.4375 181.480469 67.25 181.164062 67.097656 180.820312 L 66.636719 179.792969 C 66.5625 179.621094 66.480469 179.449219 66.410156 179.277344 L 66.21875 178.75 C 66.089844 178.394531 65.96875 178.042969 65.851562 177.6875 C 65.734375 177.332031 65.648438 176.964844 65.550781 176.609375 C 65.464844 176.246094 65.355469 175.890625 65.289062 175.527344 C 65.222656 175.164062 65.164062 174.800781 65.101562 174.441406 L 65.015625 173.898438 C 64.992188 173.726562 64.980469 173.558594 64.964844 173.390625 C 64.964844 173.378906 64.964844 173.367188 64.960938 173.355469 L 64.871094 172.277344 C 64.839844 171.917969 64.839844 171.5625 64.839844 171.210938 L 64.847656 170.148438 C 64.847656 170.132812 64.847656 170.109375 64.847656 170.09375 C 64.847656 169.757812 64.890625 169.4375 64.917969 169.109375 L 65.011719 168.082031 C 65.078125 167.523438 65.164062 166.976562 65.265625 166.4375 C 65.660156 164.347656 66.292969 162.386719 67.066406 160.546875 C 67.316406 159.96875 67.546875 159.390625 67.839844 158.84375 C 68.121094 158.289062 68.382812 157.730469 68.683594 157.195312 C 69.296875 156.136719 69.90625 155.089844 70.605469 154.105469 C 71.617188 152.613281 72.726562 151.210938 73.929688 149.886719 C 49.128906 202.523438 132.851562 184.039062 110.734375 232.625 " clip-rule="nonzero"/></clipPath></defs><g clip-path="url(#25e06620b4)"><path fill="#20ac99" d="M 117.269531 205.53125 C 116.160156 202.8125 114.523438 200.339844 112.679688 198.222656 C 112.21875 197.691406 111.734375 197.199219 111.257812 196.691406 C 110.773438 196.21875 110.269531 195.738281 109.769531 195.292969 C 108.765625 194.394531 107.734375 193.558594 106.695312 192.800781 C 105.929688 192.242188 105.167969 191.707031 104.402344 191.207031 C 101.558594 189.324219 98.707031 187.78125 95.949219 186.367188 C 95.378906 186.074219 94.8125 185.785156 94.246094 185.5 C 90.238281 183.484375 86.449219 181.65625 83.273438 179.652344 C 82.613281 179.230469 81.980469 178.800781 81.382812 178.359375 C 80.558594 177.757812 79.796875 177.140625 79.113281 176.492188 C 77.902344 175.386719 76.960938 174.1875 76.171875 172.808594 C 75.394531 171.425781 74.804688 169.824219 74.433594 168.003906 C 74.066406 166.183594 73.925781 164.167969 73.9375 162.066406 L 73.9375 161.273438 C 73.933594 161.003906 73.960938 160.738281 73.96875 160.46875 L 74.042969 158.84375 C 74.144531 157.753906 74.203125 156.632812 74.347656 155.515625 C 74.5 153.820312 74.75 152.117188 74.96875 150.363281 C 75.042969 149.777344 74.324219 149.453125 73.929688 149.886719 C 72.726562 151.210938 71.617188 152.613281 70.605469 154.105469 C 69.90625 155.089844 69.296875 156.136719 68.683594 157.195312 C 68.382812 157.730469 68.121094 158.289062 67.839844 158.84375 C 67.546875 159.390625 67.316406 159.96875 67.066406 160.546875 C 66.09375 162.863281 65.339844 165.367188 65.011719 168.082031 L 64.917969 169.109375 C 64.890625 169.457031 64.839844 169.796875 64.847656 170.148438 L 64.839844 171.210938 C 64.839844 171.5625 64.839844 171.917969 64.871094 172.277344 L 64.960938 173.355469 C 64.980469 173.535156 64.992188 173.714844 65.015625 173.898438 L 65.101562 174.441406 C 65.164062 174.800781 65.222656 175.164062 65.289062 175.527344 C 65.355469 175.890625 65.464844 176.246094 65.550781 176.609375 C 65.648438 176.964844 65.734375 177.332031 65.851562 177.6875 C 65.96875 178.042969 66.089844 178.394531 66.21875 178.75 L 66.410156 179.277344 C 66.480469 179.449219 66.5625 179.621094 66.636719 179.792969 L 67.097656 180.820312 C 67.25 181.164062 67.4375 181.480469 67.613281 181.8125 C 67.792969 182.132812 67.96875 182.472656 68.164062 182.785156 L 68.765625 183.714844 L 69.058594 184.167969 C 69.066406 184.175781 69.070312 184.183594 69.078125 184.195312 L 70.050781 185.492188 C 70.273438 185.777344 70.511719 186.042969 70.738281 186.320312 C 70.976562 186.585938 71.199219 186.875 71.445312 187.125 L 72.175781 187.882812 L 72.542969 188.261719 L 72.917969 188.613281 L 73.671875 189.320312 C 74.179688 189.773438 74.695312 190.203125 75.214844 190.632812 C 77.242188 192.273438 79.324219 193.640625 81.382812 194.871094 C 81.433594 194.902344 81.476562 194.929688 81.527344 194.957031 C 82.054688 195.28125 82.582031 195.570312 83.109375 195.867188 C 83.636719 196.164062 84.152344 196.441406 84.675781 196.730469 C 85.714844 197.289062 86.75 197.8125 87.769531 198.335938 C 90.625 199.78125 93.386719 201.09375 95.949219 202.429688 C 97.046875 202.996094 98.101562 203.566406 99.117188 204.152344 C 100.792969 205.136719 102.367188 206.132812 103.714844 207.222656 C 103.949219 207.410156 104.175781 207.601562 104.402344 207.796875 C 105.46875 208.710938 106.40625 209.683594 107.230469 210.753906 C 107.464844 211.082031 107.683594 211.414062 107.917969 211.75 C 107.925781 211.761719 107.933594 211.773438 107.941406 211.785156 L 108.246094 212.304688 C 108.355469 212.484375 108.46875 212.65625 108.554688 212.851562 L 108.84375 213.421875 C 108.890625 213.519531 108.945312 213.613281 108.992188 213.710938 L 109.078125 213.925781 L 109.113281 214.015625 C 109.269531 214.421875 109.472656 214.820312 109.597656 215.257812 C 110.195312 216.96875 110.585938 218.898438 110.800781 220.957031 C 111.03125 223.019531 111.035156 225.203125 110.984375 227.449219 L 110.9375 229.152344 L 110.835938 230.875 C 110.828125 231.164062 110.820312 231.460938 110.796875 231.75 C 110.777344 232.042969 110.75 232.328125 110.734375 232.625 L 110.734375 232.640625 C 110.695312 233.222656 111.425781 233.503906 111.792969 233.046875 C 112.917969 231.644531 113.945312 230.160156 114.847656 228.574219 C 116.039062 226.46875 117.101562 224.226562 117.824219 221.777344 C 118.554688 219.339844 119.003906 216.703125 118.96875 213.925781 C 118.9375 211.160156 118.402344 208.246094 117.269531 205.53125 M 59.359375 167.5 C 59.753906 167.0625 60.472656 167.386719 60.402344 167.972656 C 60.183594 169.726562 59.933594 171.433594 59.777344 173.125 C 59.632812 174.246094 59.574219 175.363281 59.472656 176.453125 L 59.398438 178.082031 C 59.390625 178.351562 59.363281 178.617188 59.367188 178.882812 L 59.367188 179.675781 C 59.359375 181.78125 59.496094 183.792969 59.867188 185.613281 C 60.234375 187.4375 60.824219 189.039062 61.601562 190.417969 C 62.390625 191.800781 63.332031 192.996094 64.539062 194.101562 C 65.726562 195.21875 67.125 196.253906 68.703125 197.261719 C 71.875 199.269531 75.671875 201.097656 79.675781 203.113281 C 83.679688 205.136719 87.953125 207.34375 92.125 210.410156 C 93.164062 211.171875 94.199219 212.007812 95.199219 212.902344 C 95.703125 213.347656 96.199219 213.832031 96.6875 214.304688 C 97.164062 214.8125 97.648438 215.300781 98.109375 215.832031 C 99.957031 217.949219 101.589844 220.425781 102.703125 223.140625 C 103.832031 225.855469 104.367188 228.769531 104.398438 231.539062 C 104.433594 234.316406 103.984375 236.949219 103.253906 239.390625 C 102.53125 241.835938 101.472656 244.082031 100.277344 246.183594 C 99.378906 247.769531 98.351562 249.253906 97.222656 250.660156 C 96.859375 251.113281 96.125 250.835938 96.164062 250.253906 L 96.164062 250.238281 C 96.179688 249.941406 96.207031 249.652344 96.230469 249.359375 C 96.253906 249.074219 96.257812 248.777344 96.269531 248.488281 L 96.367188 246.761719 L 96.417969 245.058594 C 96.464844 242.8125 96.460938 240.628906 96.230469 238.570312 C 96.015625 236.511719 95.625 234.582031 95.027344 232.871094 C 94.902344 232.433594 94.703125 232.03125 94.542969 231.625 L 94.421875 231.324219 C 94.378906 231.222656 94.324219 231.128906 94.273438 231.035156 L 93.984375 230.464844 C 93.902344 230.269531 93.785156 230.09375 93.675781 229.914062 L 93.371094 229.398438 C 93.363281 229.382812 93.355469 229.371094 93.347656 229.359375 C 93.113281 229.023438 92.894531 228.691406 92.660156 228.367188 C 91.664062 227.070312 90.5 225.917969 89.144531 224.832031 C 87.796875 223.746094 86.226562 222.746094 84.546875 221.765625 C 81.164062 219.808594 77.277344 218.007812 73.199219 215.949219 C 72.179688 215.425781 71.148438 214.898438 70.105469 214.339844 C 69.582031 214.054688 69.066406 213.777344 68.539062 213.476562 C 68.011719 213.179688 67.484375 212.890625 66.957031 212.566406 C 64.851562 211.3125 62.71875 209.921875 60.644531 208.246094 C 60.125 207.816406 59.609375 207.382812 59.101562 206.933594 L 58.347656 206.226562 L 57.972656 205.871094 L 57.605469 205.492188 L 56.875 204.734375 C 56.632812 204.484375 56.40625 204.195312 56.171875 203.929688 C 55.941406 203.652344 55.707031 203.390625 55.480469 203.101562 L 54.824219 202.230469 L 54.507812 201.808594 L 54.488281 201.777344 L 54.195312 201.328125 L 53.597656 200.394531 C 53.398438 200.085938 53.226562 199.746094 53.042969 199.421875 C 52.867188 199.09375 52.679688 198.777344 52.527344 198.429688 L 52.066406 197.40625 C 51.992188 197.230469 51.910156 197.0625 51.84375 196.890625 L 51.648438 196.359375 C 51.519531 196.007812 51.398438 195.652344 51.28125 195.300781 C 51.164062 194.945312 51.082031 194.578125 50.984375 194.21875 C 50.894531 193.859375 50.785156 193.503906 50.71875 193.140625 C 50.652344 192.777344 50.59375 192.414062 50.535156 192.050781 L 50.449219 191.507812 C 50.421875 191.328125 50.410156 191.148438 50.390625 190.96875 L 50.300781 189.886719 C 50.269531 189.527344 50.273438 189.175781 50.273438 188.820312 L 50.277344 187.761719 C 50.269531 187.410156 50.320312 187.066406 50.347656 186.722656 L 50.441406 185.695312 C 50.773438 182.980469 51.527344 180.472656 52.5 178.15625 C 52.742188 177.578125 52.976562 177 53.269531 176.453125 C 53.550781 175.902344 53.8125 175.34375 54.113281 174.808594 C 54.726562 173.75 55.335938 172.703125 56.035156 171.71875 C 57.046875 170.226562 58.15625 168.820312 59.359375 167.5 " fill-opacity="1" fill-rule="nonzero"/></g><g clip-path="url(#2a8f116bf1)"><path fill="#14181f" d="M 81.382812 141.816406 L 81.382812 172.832031 C 81.980469 173.273438 82.613281 173.703125 83.273438 174.125 C 84.921875 175.164062 86.738281 176.160156 88.664062 177.160156 C 90.449219 178.078125 92.324219 179.007812 94.246094 179.972656 C 94.8125 180.261719 95.378906 180.546875 95.949219 180.839844 L 95.949219 141.816406 Z M 118.96875 123.890625 L 118.96875 206.902344 C 118.9375 204.132812 118.402344 201.21875 117.269531 198.507812 C 116.160156 195.785156 114.523438 193.3125 112.679688 191.195312 C 112.21875 190.664062 111.734375 190.175781 111.257812 189.664062 C 110.773438 189.191406 110.269531 188.710938 109.769531 188.265625 C 108.765625 187.371094 107.734375 186.535156 106.695312 185.773438 C 105.929688 185.214844 105.167969 184.683594 104.402344 184.179688 L 104.402344 123.890625 L 118.96875 123.890625 " fill-opacity="1" fill-rule="nonzero"/></g><g clip-path="url(#2a73203e90)"><g clip-path="url(#819ea960a4)"><g clip-path="url(#3f96eb29d2)"><path fill="#ffffff" d="M 103.371094 151.464844 L 41.476562 170.265625 L 58.625 226.726562 L 120.519531 207.921875 Z M 103.371094 151.464844 " fill-opacity="1" fill-rule="nonzero"/></g></g></g><g clip-path="url(#23441d7f09)"><g clip-path="url(#4d39b86610)"><g clip-path="url(#96bb2f78e1)"><path fill="#7952d8" d="M 124.550781 122.566406 L 6.730469 158.363281 L 42.925781 277.507812 L 160.746094 241.714844 Z M 124.550781 122.566406 " fill-opacity="1" fill-rule="nonzero"/></g></g></g><g fill="#000000" fill-opacity="1"><g transform="translate(131.703644, 170.322426)"><g><path d="M 10.078125 -3.4375 C 10.648438 -3.4375 11.207031 -3.519531 11.75 -3.6875 C 12.300781 -3.863281 12.703125 -4.035156 12.953125 -4.203125 L 13.34375 -4.46875 L 14.953125 -1.234375 C 14.898438 -1.191406 14.828125 -1.132812 14.734375 -1.0625 C 14.640625 -1 14.421875 -0.875 14.078125 -0.6875 C 13.734375 -0.507812 13.363281 -0.351562 12.96875 -0.21875 C 12.582031 -0.0820312 12.070312 0.0351562 11.4375 0.140625 C 10.8125 0.242188 10.160156 0.296875 9.484375 0.296875 C 7.941406 0.296875 6.476562 -0.0820312 5.09375 -0.84375 C 3.707031 -1.601562 2.585938 -2.644531 1.734375 -3.96875 C 0.890625 -5.300781 0.46875 -6.742188 0.46875 -8.296875 C 0.46875 -9.460938 0.710938 -10.582031 1.203125 -11.65625 C 1.703125 -12.738281 2.363281 -13.660156 3.1875 -14.421875 C 4.019531 -15.191406 4.988281 -15.804688 6.09375 -16.265625 C 7.195312 -16.722656 8.328125 -16.953125 9.484375 -16.953125 C 10.566406 -16.953125 11.5625 -16.820312 12.46875 -16.5625 C 13.375 -16.3125 14.015625 -16.0625 14.390625 -15.8125 L 14.953125 -15.421875 L 13.34375 -12.1875 C 13.25 -12.269531 13.109375 -12.367188 12.921875 -12.484375 C 12.734375 -12.597656 12.351562 -12.75 11.78125 -12.9375 C 11.21875 -13.125 10.648438 -13.21875 10.078125 -13.21875 C 9.160156 -13.21875 8.335938 -13.066406 7.609375 -12.765625 C 6.878906 -12.472656 6.300781 -12.082031 5.875 -11.59375 C 5.457031 -11.113281 5.132812 -10.59375 4.90625 -10.03125 C 4.6875 -9.476562 4.578125 -8.914062 4.578125 -8.34375 C 4.578125 -7.070312 5.050781 -5.9375 6 -4.9375 C 6.945312 -3.9375 8.304688 -3.4375 10.078125 -3.4375 Z M 10.078125 -3.4375 "/></g></g></g><g fill="#000000" fill-opacity="1"><g transform="translate(146.898947, 170.322426)"><g><path d="M 1.921875 -1.28125 C 0.953125 -2.332031 0.46875 -3.625 0.46875 -5.15625 C 0.46875 -6.695312 0.953125 -8 1.921875 -9.0625 C 2.890625 -10.125 4.117188 -10.65625 5.609375 -10.65625 C 6.984375 -10.65625 8.113281 -10.222656 9 -9.359375 L 9 -10.359375 L 12.578125 -10.359375 L 12.578125 0 L 9.046875 0 L 9.046875 -1.171875 L 9 -1.171875 C 8.113281 -0.191406 6.984375 0.296875 5.609375 0.296875 C 4.117188 0.296875 2.890625 -0.226562 1.921875 -1.28125 Z M 4.953125 -6.921875 C 4.492188 -6.460938 4.265625 -5.875 4.265625 -5.15625 C 4.265625 -4.445312 4.484375 -3.867188 4.921875 -3.421875 C 5.367188 -2.972656 5.957031 -2.75 6.6875 -2.75 C 7.382812 -2.75 7.957031 -2.976562 8.40625 -3.4375 C 8.851562 -3.894531 9.078125 -4.472656 9.078125 -5.171875 C 9.078125 -5.878906 8.84375 -6.460938 8.375 -6.921875 C 7.914062 -7.378906 7.351562 -7.609375 6.6875 -7.609375 C 6 -7.609375 5.421875 -7.378906 4.953125 -6.921875 Z M 4.953125 -6.921875 "/></g></g></g><g fill="#000000" fill-opacity="1"><g transform="translate(160.681672, 170.322426)"><g><path d="M 11.875 -9.0625 C 12.84375 -8.007812 13.328125 -6.71875 13.328125 -5.1875 C 13.328125 -3.65625 12.84375 -2.359375 11.875 -1.296875 C 10.90625 -0.234375 9.671875 0.296875 8.171875 0.296875 C 6.796875 0.296875 5.664062 -0.128906 4.78125 -0.984375 L 4.78125 5.25 L 1.21875 5.25 L 1.21875 -10.359375 L 4.75 -10.359375 L 4.75 -9.1875 L 4.78125 -9.1875 C 5.664062 -10.164062 6.796875 -10.65625 8.171875 -10.65625 C 9.671875 -10.65625 10.90625 -10.125 11.875 -9.0625 Z M 8.828125 -3.4375 C 9.296875 -3.894531 9.53125 -4.476562 9.53125 -5.1875 C 9.53125 -5.90625 9.304688 -6.488281 8.859375 -6.9375 C 8.421875 -7.382812 7.835938 -7.609375 7.109375 -7.609375 C 6.410156 -7.609375 5.832031 -7.378906 5.375 -6.921875 C 4.925781 -6.460938 4.703125 -5.882812 4.703125 -5.1875 C 4.703125 -4.476562 4.929688 -3.894531 5.390625 -3.4375 C 5.859375 -2.976562 6.429688 -2.75 7.109375 -2.75 C 7.796875 -2.75 8.367188 -2.976562 8.828125 -3.4375 Z M 8.828125 -3.4375 "/></g></g></g><g fill="#000000" fill-opacity="1"><g transform="translate(174.464398, 170.322426)"><g><path d="M 1.546875 -16.125 C 1.972656 -16.539062 2.472656 -16.75 3.046875 -16.75 C 3.628906 -16.75 4.128906 -16.539062 4.546875 -16.125 C 4.960938 -15.707031 5.171875 -15.207031 5.171875 -14.625 C 5.171875 -14.050781 4.960938 -13.554688 4.546875 -13.140625 C 4.128906 -12.722656 3.628906 -12.515625 3.046875 -12.515625 C 2.472656 -12.515625 1.972656 -12.722656 1.546875 -13.140625 C 1.128906 -13.554688 0.921875 -14.050781 0.921875 -14.625 C 0.921875 -15.207031 1.128906 -15.707031 1.546875 -16.125 Z M 1.21875 -10.359375 L 1.21875 0 L 4.78125 0 L 4.78125 -10.359375 Z M 1.21875 -10.359375 "/></g></g></g><g fill="#000000" fill-opacity="1"><g transform="translate(180.558662, 170.322426)"><g><path d="M 1.8125 -10.359375 L 1.8125 -14.21875 L 5.390625 -14.21875 L 5.390625 -10.359375 L 7.578125 -10.359375 L 7.578125 -7.625 L 5.390625 -7.625 L 5.390625 -4.34375 C 5.390625 -3.382812 5.660156 -2.90625 6.203125 -2.90625 C 6.335938 -2.90625 6.476562 -2.929688 6.625 -2.984375 C 6.769531 -3.035156 6.882812 -3.09375 6.96875 -3.15625 L 7.078125 -3.234375 L 7.96875 -0.34375 C 7.207031 0.0820312 6.332031 0.296875 5.34375 0.296875 C 4.675781 0.296875 4.097656 0.179688 3.609375 -0.046875 C 3.128906 -0.285156 2.765625 -0.601562 2.515625 -1 C 2.265625 -1.394531 2.082031 -1.8125 1.96875 -2.25 C 1.863281 -2.6875 1.8125 -3.15625 1.8125 -3.65625 L 1.8125 -7.625 L 0.328125 -7.625 L 0.328125 -10.359375 Z M 1.8125 -10.359375 "/></g></g></g><g fill="#000000" fill-opacity="1"><g transform="translate(188.529643, 170.322426)"><g><path d="M 1.921875 -1.28125 C 0.953125 -2.332031 0.46875 -3.625 0.46875 -5.15625 C 0.46875 -6.695312 0.953125 -8 1.921875 -9.0625 C 2.890625 -10.125 4.117188 -10.65625 5.609375 -10.65625 C 6.984375 -10.65625 8.113281 -10.222656 9 -9.359375 L 9 -10.359375 L 12.578125 -10.359375 L 12.578125 0 L 9.046875 0 L 9.046875 -1.171875 L 9 -1.171875 C 8.113281 -0.191406 6.984375 0.296875 5.609375 0.296875 C 4.117188 0.296875 2.890625 -0.226562 1.921875 -1.28125 Z M 4.953125 -6.921875 C 4.492188 -6.460938 4.265625 -5.875 4.265625 -5.15625 C 4.265625 -4.445312 4.484375 -3.867188 4.921875 -3.421875 C 5.367188 -2.972656 5.957031 -2.75 6.6875 -2.75 C 7.382812 -2.75 7.957031 -2.976562 8.40625 -3.4375 C 8.851562 -3.894531 9.078125 -4.472656 9.078125 -5.171875 C 9.078125 -5.878906 8.84375 -6.460938 8.375 -6.921875 C 7.914062 -7.378906 7.351562 -7.609375 6.6875 -7.609375 C 6 -7.609375 5.421875 -7.378906 4.953125 -6.921875 Z M 4.953125 -6.921875 "/></g></g></g><g fill="#000000" fill-opacity="1"><g transform="translate(202.312368, 170.322426)"><g><path d="M 1.21875 0 L 1.21875 -17.359375 L 4.78125 -17.359375 L 4.78125 0 Z M 1.21875 0 "/></g></g></g><g fill="#000000" fill-opacity="1"><g transform="translate(208.30573, 170.322426)"><g/></g></g><g fill="#000000" fill-opacity="1"><g transform="translate(213.81479, 170.322426)"><g><path d="M 1.21875 -16.65625 L 6.375 -16.65625 C 7.9375 -16.65625 9.179688 -16.320312 10.109375 -15.65625 C 11.035156 -14.988281 11.5 -13.910156 11.5 -12.421875 C 11.5 -10.742188 10.804688 -9.550781 9.421875 -8.84375 C 11.796875 -8.425781 12.984375 -7.023438 12.984375 -4.640625 C 12.984375 -3.242188 12.5 -2.117188 11.53125 -1.265625 C 10.5625 -0.421875 9.226562 0 7.53125 0 L 1.21875 0 Z M 5 -10.140625 L 5.3125 -10.140625 C 6.15625 -10.140625 6.785156 -10.285156 7.203125 -10.578125 C 7.617188 -10.867188 7.828125 -11.351562 7.828125 -12.03125 C 7.828125 -13.164062 6.988281 -13.734375 5.3125 -13.734375 L 5 -13.734375 Z M 5 -2.921875 L 6.203125 -2.921875 C 8.054688 -2.921875 8.984375 -3.539062 8.984375 -4.78125 C 8.984375 -5.519531 8.75 -6.050781 8.28125 -6.375 C 7.820312 -6.695312 7.128906 -6.859375 6.203125 -6.859375 L 5 -6.859375 Z M 5 -2.921875 "/></g></g></g><g fill="#000000" fill-opacity="1"><g transform="translate(227.254467, 170.322426)"><g><path d="M 1.21875 0 L 1.21875 -10.359375 L 4.78125 -10.359375 L 4.78125 -8.859375 L 4.828125 -8.859375 C 4.847656 -8.910156 4.890625 -8.976562 4.953125 -9.0625 C 5.015625 -9.144531 5.144531 -9.285156 5.34375 -9.484375 C 5.550781 -9.691406 5.769531 -9.875 6 -10.03125 C 6.226562 -10.195312 6.519531 -10.34375 6.875 -10.46875 C 7.238281 -10.59375 7.613281 -10.65625 8 -10.65625 C 8.382812 -10.65625 8.765625 -10.601562 9.140625 -10.5 C 9.515625 -10.394531 9.789062 -10.285156 9.96875 -10.171875 L 10.25 -10.015625 L 8.765625 -6.984375 C 8.316406 -7.359375 7.695312 -7.546875 6.90625 -7.546875 C 6.476562 -7.546875 6.109375 -7.453125 5.796875 -7.265625 C 5.484375 -7.078125 5.265625 -6.847656 5.140625 -6.578125 C 5.015625 -6.304688 4.921875 -6.078125 4.859375 -5.890625 C 4.804688 -5.703125 4.78125 -5.554688 4.78125 -5.453125 L 4.78125 0 Z M 1.21875 0 "/></g></g></g><g fill="#000000" fill-opacity="1"><g transform="translate(237.303947, 170.322426)"><g><path d="M 1.546875 -16.125 C 1.972656 -16.539062 2.472656 -16.75 3.046875 -16.75 C 3.628906 -16.75 4.128906 -16.539062 4.546875 -16.125 C 4.960938 -15.707031 5.171875 -15.207031 5.171875 -14.625 C 5.171875 -14.050781 4.960938 -13.554688 4.546875 -13.140625 C 4.128906 -12.722656 3.628906 -12.515625 3.046875 -12.515625 C 2.472656 -12.515625 1.972656 -12.722656 1.546875 -13.140625 C 1.128906 -13.554688 0.921875 -14.050781 0.921875 -14.625 C 0.921875 -15.207031 1.128906 -15.707031 1.546875 -16.125 Z M 1.21875 -10.359375 L 1.21875 0 L 4.78125 0 L 4.78125 -10.359375 Z M 1.21875 -10.359375 "/></g></g></g><g fill="#000000" fill-opacity="1"><g transform="translate(243.398212, 170.322426)"><g><path d="M 1.921875 -1.28125 C 0.953125 -2.332031 0.46875 -3.625 0.46875 -5.15625 C 0.46875 -6.695312 0.953125 -8 1.921875 -9.0625 C 2.890625 -10.125 4.117188 -10.65625 5.609375 -10.65625 C 6.984375 -10.65625 8.113281 -10.222656 9 -9.359375 L 9 -17.359375 L 12.578125 -17.359375 L 12.578125 0 L 9.046875 0 L 9.046875 -1.171875 L 9 -1.171875 C 8.113281 -0.191406 6.984375 0.296875 5.609375 0.296875 C 4.117188 0.296875 2.890625 -0.226562 1.921875 -1.28125 Z M 4.953125 -6.921875 C 4.492188 -6.460938 4.265625 -5.875 4.265625 -5.15625 C 4.265625 -4.445312 4.484375 -3.867188 4.921875 -3.421875 C 5.367188 -2.972656 5.957031 -2.75 6.6875 -2.75 C 7.382812 -2.75 7.957031 -2.976562 8.40625 -3.4375 C 8.851562 -3.894531 9.078125 -4.472656 9.078125 -5.171875 C 9.078125 -5.878906 8.84375 -6.460938 8.375 -6.921875 C 7.914062 -7.378906 7.351562 -7.609375 6.6875 -7.609375 C 6 -7.609375 5.421875 -7.378906 4.953125 -6.921875 Z M 4.953125 -6.921875 "/></g></g></g><g fill="#000000" fill-opacity="1"><g transform="translate(257.180937, 170.322426)"><g><path d="M 0.75 2.546875 L 3.671875 1.109375 C 4.210938 1.992188 5.148438 2.4375 6.484375 2.4375 C 7.097656 2.4375 7.671875 2.238281 8.203125 1.84375 C 8.734375 1.445312 9 0.835938 9 0.015625 L 9 -0.75 C 8.375 -0.0507812 7.242188 0.296875 5.609375 0.296875 C 4.117188 0.296875 2.890625 -0.226562 1.921875 -1.28125 C 0.953125 -2.332031 0.46875 -3.625 0.46875 -5.15625 C 0.46875 -6.695312 0.953125 -8 1.921875 -9.0625 C 2.890625 -10.125 4.117188 -10.65625 5.609375 -10.65625 C 6.941406 -10.65625 8.050781 -10.242188 8.9375 -9.421875 L 9 -9.421875 L 9 -10.359375 L 12.578125 -10.359375 L 12.578125 0.28125 C 12.578125 1.96875 12.015625 3.265625 10.890625 4.171875 C 9.773438 5.085938 8.304688 5.546875 6.484375 5.546875 C 3.515625 5.546875 1.601562 4.546875 0.75 2.546875 Z M 4.953125 -6.921875 C 4.492188 -6.460938 4.265625 -5.875 4.265625 -5.15625 C 4.265625 -4.445312 4.484375 -3.867188 4.921875 -3.421875 C 5.367188 -2.972656 5.957031 -2.75 6.6875 -2.75 C 7.382812 -2.75 7.957031 -2.976562 8.40625 -3.4375 C 8.851562 -3.894531 9.078125 -4.472656 9.078125 -5.171875 C 9.078125 -5.878906 8.84375 -6.460938 8.375 -6.921875 C 7.914062 -7.378906 7.351562 -7.609375 6.6875 -7.609375 C 6 -7.609375 5.421875 -7.378906 4.953125 -6.921875 Z M 4.953125 -6.921875 "/></g></g></g><g fill="#000000" fill-opacity="1"><g transform="translate(270.963662, 170.322426)"><g><path d="M 11.6875 -4.6875 L 4.171875 -4.6875 C 4.171875 -3.957031 4.40625 -3.414062 4.875 -3.0625 C 5.351562 -2.71875 5.867188 -2.546875 6.421875 -2.546875 C 6.992188 -2.546875 7.445312 -2.625 7.78125 -2.78125 C 8.125 -2.9375 8.507812 -3.238281 8.9375 -3.6875 L 11.53125 -2.40625 C 10.445312 -0.601562 8.65625 0.296875 6.15625 0.296875 C 4.59375 0.296875 3.253906 -0.234375 2.140625 -1.296875 C 1.023438 -2.367188 0.46875 -3.65625 0.46875 -5.15625 C 0.46875 -6.664062 1.023438 -7.957031 2.140625 -9.03125 C 3.253906 -10.113281 4.59375 -10.65625 6.15625 -10.65625 C 7.800781 -10.65625 9.132812 -10.179688 10.15625 -9.234375 C 11.1875 -8.285156 11.703125 -6.929688 11.703125 -5.171875 C 11.703125 -4.921875 11.695312 -4.757812 11.6875 -4.6875 Z M 4.28125 -6.65625 L 8.21875 -6.65625 C 8.132812 -7.195312 7.921875 -7.613281 7.578125 -7.90625 C 7.234375 -8.195312 6.796875 -8.34375 6.265625 -8.34375 C 5.671875 -8.34375 5.195312 -8.1875 4.84375 -7.875 C 4.488281 -7.5625 4.300781 -7.15625 4.28125 -6.65625 Z M 4.28125 -6.65625 "/></g></g></g><g fill="#000000" fill-opacity="1"><g transform="translate(131.703644, 194.244347)"><g><path d="M 12.546875 0 L 9.4375 0 L 4.234375 -7.875 L 4.234375 0 L 1.125 0 L 1.125 -12.765625 L 4.234375 -12.765625 L 9.4375 -4.859375 L 9.4375 -12.765625 L 12.546875 -12.765625 Z M 12.546875 0 "/></g></g></g><g fill="#000000" fill-opacity="1"><g transform="translate(145.38066, 194.244347)"><g><path d="M 10.6875 -5.234375 C 10.6875 -4.941406 10.671875 -4.640625 10.640625 -4.328125 L 3.59375 -4.328125 C 3.644531 -3.703125 3.847656 -3.21875 4.203125 -2.875 C 4.566406 -2.539062 5.007812 -2.375 5.53125 -2.375 C 6.300781 -2.375 6.835938 -2.703125 7.140625 -3.359375 L 10.453125 -3.359375 C 10.285156 -2.691406 9.976562 -2.09375 9.53125 -1.5625 C 9.09375 -1.03125 8.539062 -0.613281 7.875 -0.3125 C 7.207031 -0.0078125 6.460938 0.140625 5.640625 0.140625 C 4.640625 0.140625 3.75 -0.0664062 2.96875 -0.484375 C 2.195312 -0.910156 1.59375 -1.515625 1.15625 -2.296875 C 0.726562 -3.085938 0.515625 -4.015625 0.515625 -5.078125 C 0.515625 -6.128906 0.726562 -7.046875 1.15625 -7.828125 C 1.582031 -8.617188 2.179688 -9.226562 2.953125 -9.65625 C 3.734375 -10.082031 4.628906 -10.296875 5.640625 -10.296875 C 6.617188 -10.296875 7.488281 -10.085938 8.25 -9.671875 C 9.019531 -9.265625 9.617188 -8.675781 10.046875 -7.90625 C 10.472656 -7.144531 10.6875 -6.253906 10.6875 -5.234375 Z M 7.515625 -6.0625 C 7.515625 -6.59375 7.332031 -7.015625 6.96875 -7.328125 C 6.601562 -7.640625 6.148438 -7.796875 5.609375 -7.796875 C 5.078125 -7.796875 4.632812 -7.644531 4.28125 -7.34375 C 3.925781 -7.039062 3.707031 -6.613281 3.625 -6.0625 Z M 7.515625 -6.0625 "/></g></g></g><g fill="#000000" fill-opacity="1"><g transform="translate(156.584174, 194.244347)"><g><path d="M 4.234375 -8.71875 C 4.535156 -9.1875 4.953125 -9.566406 5.484375 -9.859375 C 6.023438 -10.148438 6.648438 -10.296875 7.359375 -10.296875 C 8.203125 -10.296875 8.960938 -10.082031 9.640625 -9.65625 C 10.316406 -9.226562 10.851562 -8.617188 11.25 -7.828125 C 11.644531 -7.046875 11.84375 -6.132812 11.84375 -5.09375 C 11.84375 -4.050781 11.644531 -3.128906 11.25 -2.328125 C 10.851562 -1.535156 10.316406 -0.925781 9.640625 -0.5 C 8.960938 -0.0703125 8.203125 0.140625 7.359375 0.140625 C 6.660156 0.140625 6.039062 -0.00390625 5.5 -0.296875 C 4.957031 -0.585938 4.535156 -0.960938 4.234375 -1.421875 L 4.234375 4.84375 L 1.125 4.84375 L 1.125 -10.15625 L 4.234375 -10.15625 Z M 8.671875 -5.09375 C 8.671875 -5.863281 8.457031 -6.46875 8.03125 -6.90625 C 7.601562 -7.351562 7.070312 -7.578125 6.4375 -7.578125 C 5.820312 -7.578125 5.296875 -7.351562 4.859375 -6.90625 C 4.429688 -6.457031 4.21875 -5.847656 4.21875 -5.078125 C 4.21875 -4.296875 4.429688 -3.679688 4.859375 -3.234375 C 5.296875 -2.785156 5.820312 -2.5625 6.4375 -2.5625 C 7.050781 -2.5625 7.578125 -2.785156 8.015625 -3.234375 C 8.453125 -3.691406 8.671875 -4.3125 8.671875 -5.09375 Z M 8.671875 -5.09375 "/></g></g></g><g fill="#000000" fill-opacity="1"><g transform="translate(168.933504, 194.244347)"><g><path d="M 0.515625 -5.09375 C 0.515625 -6.132812 0.707031 -7.046875 1.09375 -7.828125 C 1.488281 -8.617188 2.023438 -9.226562 2.703125 -9.65625 C 3.390625 -10.082031 4.148438 -10.296875 4.984375 -10.296875 C 5.703125 -10.296875 6.328125 -10.148438 6.859375 -9.859375 C 7.398438 -9.566406 7.816406 -9.1875 8.109375 -8.71875 L 8.109375 -10.15625 L 11.21875 -10.15625 L 11.21875 0 L 8.109375 0 L 8.109375 -1.4375 C 7.804688 -0.96875 7.382812 -0.585938 6.84375 -0.296875 C 6.300781 -0.00390625 5.675781 0.140625 4.96875 0.140625 C 4.144531 0.140625 3.390625 -0.0703125 2.703125 -0.5 C 2.023438 -0.925781 1.488281 -1.535156 1.09375 -2.328125 C 0.707031 -3.128906 0.515625 -4.050781 0.515625 -5.09375 Z M 8.109375 -5.078125 C 8.109375 -5.847656 7.894531 -6.457031 7.46875 -6.90625 C 7.039062 -7.351562 6.515625 -7.578125 5.890625 -7.578125 C 5.273438 -7.578125 4.75 -7.351562 4.3125 -6.90625 C 3.882812 -6.46875 3.671875 -5.863281 3.671875 -5.09375 C 3.671875 -4.3125 3.882812 -3.691406 4.3125 -3.234375 C 4.75 -2.785156 5.273438 -2.5625 5.890625 -2.5625 C 6.515625 -2.5625 7.039062 -2.785156 7.46875 -3.234375 C 7.894531 -3.679688 8.109375 -4.296875 8.109375 -5.078125 Z M 8.109375 -5.078125 "/></g></g></g><g fill="#000000" fill-opacity="1"><g transform="translate(181.282834, 194.244347)"><g><path d="M 4.234375 -13.453125 L 4.234375 0 L 1.125 0 L 1.125 -13.453125 Z M 4.234375 -13.453125 "/></g></g></g></svg>